<svg version="1.1" xmlns="http://www.w3.org/2000/svg" viewBox="0 0 555.03125 553.4375" width="1665.09375" height="1660.3125">
  <!-- svg-source:excalidraw -->
  
  <defs>
    <style class="style-fonts">
      
    </style>
    
  </defs>
  <g stroke-linecap="round" transform="translate(10 127.2734375) rotate(0 148.859375 132.7890625)"><path d="M32 0 C96.42 6.29, 165.61 2.47, 265.72 0 M32 0 C115.22 -2.01, 197.76 -1.44, 265.72 0 M265.72 0 C283.5 -0.65, 299.69 8.48, 297.72 32 M265.72 0 C289.87 3.59, 300.91 14.63, 297.72 32 M297.72 32 C303.48 96.96, 300.2 155.53, 297.72 233.58 M297.72 32 C300.47 90.74, 300.49 152.26, 297.72 233.58 M297.72 233.58 C295.04 258.76, 286.1 263.08, 265.72 265.58 M297.72 233.58 C301.55 252.21, 290.21 265.45, 265.72 265.58 M265.72 265.58 C189.72 271.23, 108.4 266.3, 32 265.58 M265.72 265.58 C194.07 266.84, 122.16 265.18, 32 265.58 M32 265.58 C10.4 263.22, -2.92 256.47, 0 233.58 M32 265.58 C9.5 262.07, -3.11 256.25, 0 233.58 M0 233.58 C-0.79 164.71, -1.45 90.48, 0 32 M0 233.58 C-1.26 185.1, 0.26 134.87, 0 32 M0 32 C-1.31 8.81, 7.37 -3.65, 32 0 M0 32 C-0.54 8.86, 8.3 -2.43, 32 0" stroke="#9c36b5" stroke-width="4" fill="none"></path></g><g stroke-linecap="round" transform="translate(129.15234375 10) rotate(0 148.859375 132.7890625)"><path d="M32 0 C96.25 -2.73, 154.42 -2.31, 265.72 0 M32 0 C111.6 -1.19, 190.23 -2.38, 265.72 0 M265.72 0 C285.5 -1.74, 301.28 13.39, 297.72 32 M265.72 0 C285.46 -1.25, 295.31 9.49, 297.72 32 M297.72 32 C294.29 78.14, 294.55 120.87, 297.72 233.58 M297.72 32 C296.27 74.74, 297.49 114.87, 297.72 233.58 M297.72 233.58 C300.36 255.39, 289.84 267.3, 265.72 265.58 M297.72 233.58 C299.54 257.84, 291.05 268.91, 265.72 265.58 M265.72 265.58 C214.23 263.66, 157.5 267.85, 32 265.58 M265.72 265.58 C207.73 267.34, 149.7 268.76, 32 265.58 M32 265.58 C8.12 262.35, -1.59 254.71, 0 233.58 M32 265.58 C13.27 267.9, 2.31 253.53, 0 233.58 M0 233.58 C2.69 186.47, 0.62 135.03, 0 32 M0 233.58 C-1.41 181.34, -1.1 126.62, 0 32 M0 32 C-2.45 9.82, 9.43 -2.29, 32 0 M0 32 C-3.66 13.8, 10.19 0.66, 32 0" stroke="#e03131" stroke-width="4" fill="none"></path></g><g stroke-linecap="round" transform="translate(247.3125 127.421875) rotate(0 148.859375 132.7890625)"><path d="M32 0 C118.61 -4.75, 204.32 -4.74, 265.72 0 M32 0 C101.12 1.79, 172.43 3.69, 265.72 0 M265.72 0 C286.34 -2.36, 299.53 14.28, 297.72 32 M265.72 0 C287.93 -3, 293.46 7.96, 297.72 32 M297.72 32 C295.96 82.25, 296.65 127.11, 297.72 233.58 M297.72 32 C295.75 78, 296.16 125.05, 297.72 233.58 M297.72 233.58 C301.53 258.16, 286.4 264.32, 265.72 265.58 M297.72 233.58 C295.42 257.07, 288.3 266.99, 265.72 265.58 M265.72 265.58 C206.08 270.33, 148.77 267.29, 32 265.58 M265.72 265.58 C205.66 261.97, 146.78 263.07, 32 265.58 M32 265.58 C10.26 267.4, -0.09 256.23, 0 233.58 M32 265.58 C11.74 266.82, 0.86 252.6, 0 233.58 M0 233.58 C0.9 170.95, -1.81 109.5, 0 32 M0 233.58 C3.62 188.2, 2.79 140.14, 0 32 M0 32 C-2.92 7.24, 7.75 -2.01, 32 0 M0 32 C-2.14 9.79, 13.81 -0.18, 32 0" stroke="#1971c2" stroke-width="4" fill="none"></path></g><g stroke-linecap="round" transform="translate(129.75 277.859375) rotate(0 148.859375 132.7890625)"><path d="M32 0 C89.64 1.25, 141.02 -1.98, 265.72 0 M32 0 C120.93 -1.06, 212.55 -0.41, 265.72 0 M265.72 0 C287.56 2.71, 295.16 10.58, 297.72 32 M265.72 0 C287.82 3.83, 297.42 9.49, 297.72 32 M297.72 32 C297 75.44, 302.96 120.98, 297.72 233.58 M297.72 32 C295.41 91.65, 294.5 153.33, 297.72 233.58 M297.72 233.58 C298.83 251.41, 289.92 263.38, 265.72 265.58 M297.72 233.58 C295.1 254.29, 290.05 263.32, 265.72 265.58 M265.72 265.58 C182.62 269.02, 98.59 265.49, 32 265.58 M265.72 265.58 C189.61 267.29, 112.16 266.3, 32 265.58 M32 265.58 C11.71 266.1, -2.9 254.26, 0 233.58 M32 265.58 C13.36 268.67, 4.01 256.37, 0 233.58 M0 233.58 C1.11 160.3, 1.34 92, 0 32 M0 233.58 C0.18 178.05, -0.48 121, 0 32 M0 32 C3.87 9.92, 7.29 2.54, 32 0 M0 32 C-2.21 11.12, 9.65 -3.09, 32 0" stroke="#f08c00" stroke-width="4" fill="none"></path></g></svg>